<?xml version="1.0" encoding="utf-8"?>
<svg version="1.1" baseProfile="full" width="800" height="600" xmlns="http://www.w3.org/2000/svg">
<clipPath>
<rect x="0" y="0" width="800" height="600" fill="rgb(0,0,0)" />
</clipPath>
<text x="279" y="34" fill="rgb(0,0,0)">
Number of Elements Sorted Versus Time</text>
<line x1="158.858" y1="50" x2="158.858" y2="550" stroke="rgb(200,200,200)" />
<line x1="222.835" y1="50" x2="222.835" y2="550" stroke="rgb(200,200,200)" />
<line x1="286.811" y1="50" x2="286.811" y2="550" stroke="rgb(200,200,200)" />
<line x1="350.787" y1="50" x2="350.787" y2="550" stroke="rgb(200,200,200)" />
<line x1="414.764" y1="50" x2="414.764" y2="550" stroke="rgb(200,200,200)" />
<line x1="478.74" y1="50" x2="478.74" y2="550" stroke="rgb(200,200,200)" />
<line x1="542.717" y1="50" x2="542.717" y2="550" stroke="rgb(200,200,200)" />
<line x1="606.693" y1="50" x2="606.693" y2="550" stroke="rgb(200,200,200)" />
<line x1="670.669" y1="50" x2="670.669" y2="550" stroke="rgb(200,200,200)" />
<line x1="734.646" y1="50" x2="734.646" y2="550" stroke="rgb(200,200,200)" />
<line x1="100" y1="550" x2="750" y2="550" stroke="rgb(200,200,200)" />
<line x1="100" y1="513.381" x2="750" y2="513.381" stroke="rgb(200,200,200)" />
<line x1="100" y1="476.761" x2="750" y2="476.761" stroke="rgb(200,200,200)" />
<line x1="100" y1="440.142" x2="750" y2="440.142" stroke="rgb(200,200,200)" />
<line x1="100" y1="403.523" x2="750" y2="403.523" stroke="rgb(200,200,200)" />
<line x1="100" y1="366.903" x2="750" y2="366.903" stroke="rgb(200,200,200)" />
<line x1="100" y1="330.284" x2="750" y2="330.284" stroke="rgb(200,200,200)" />
<line x1="100" y1="293.665" x2="750" y2="293.665" stroke="rgb(200,200,200)" />
<line x1="100" y1="257.046" x2="750" y2="257.046" stroke="rgb(200,200,200)" />
<line x1="100" y1="220.426" x2="750" y2="220.426" stroke="rgb(200,200,200)" />
<line x1="100" y1="183.807" x2="750" y2="183.807" stroke="rgb(200,200,200)" />
<line x1="100" y1="147.188" x2="750" y2="147.188" stroke="rgb(200,200,200)" />
<line x1="100" y1="110.568" x2="750" y2="110.568" stroke="rgb(200,200,200)" />
<line x1="100" y1="73.949" x2="750" y2="73.949" stroke="rgb(200,200,200)" />
<line x1="100" y1="550" x2="750" y2="550" stroke="rgb(0,0,0)" />
<line x1="107.677" y1="550" x2="107.677" y2="554" stroke="rgb(0,0,0)" />
<line x1="120.472" y1="550" x2="120.472" y2="554" stroke="rgb(0,0,0)" />
<line x1="133.268" y1="550" x2="133.268" y2="554" stroke="rgb(0,0,0)" />
<line x1="146.063" y1="550" x2="146.063" y2="554" stroke="rgb(0,0,0)" />
<text x="158" y="578" fill="rgb(0,0,0)">
200</text>
<line x1="158.858" y1="550" x2="158.858" y2="558" stroke="rgb(0,0,0)" />
<line x1="171.654" y1="550" x2="171.654" y2="554" stroke="rgb(0,0,0)" />
<line x1="184.449" y1="550" x2="184.449" y2="554" stroke="rgb(0,0,0)" />
<line x1="197.244" y1="550" x2="197.244" y2="554" stroke="rgb(0,0,0)" />
<line x1="210.039" y1="550" x2="210.039" y2="554" stroke="rgb(0,0,0)" />
<text x="222" y="578" fill="rgb(0,0,0)">
400</text>
<line x1="222.835" y1="550" x2="222.835" y2="558" stroke="rgb(0,0,0)" />
<line x1="235.63" y1="550" x2="235.63" y2="554" stroke="rgb(0,0,0)" />
<line x1="248.425" y1="550" x2="248.425" y2="554" stroke="rgb(0,0,0)" />
<line x1="261.22" y1="550" x2="261.22" y2="554" stroke="rgb(0,0,0)" />
<line x1="274.016" y1="550" x2="274.016" y2="554" stroke="rgb(0,0,0)" />
<text x="286" y="578" fill="rgb(0,0,0)">
600</text>
<line x1="286.811" y1="550" x2="286.811" y2="558" stroke="rgb(0,0,0)" />
<line x1="299.606" y1="550" x2="299.606" y2="554" stroke="rgb(0,0,0)" />
<line x1="312.402" y1="550" x2="312.402" y2="554" stroke="rgb(0,0,0)" />
<line x1="325.197" y1="550" x2="325.197" y2="554" stroke="rgb(0,0,0)" />
<line x1="337.992" y1="550" x2="337.992" y2="554" stroke="rgb(0,0,0)" />
<text x="350" y="578" fill="rgb(0,0,0)">
800</text>
<line x1="350.787" y1="550" x2="350.787" y2="558" stroke="rgb(0,0,0)" />
<line x1="363.583" y1="550" x2="363.583" y2="554" stroke="rgb(0,0,0)" />
<line x1="376.378" y1="550" x2="376.378" y2="554" stroke="rgb(0,0,0)" />
<line x1="389.173" y1="550" x2="389.173" y2="554" stroke="rgb(0,0,0)" />
<line x1="401.969" y1="550" x2="401.969" y2="554" stroke="rgb(0,0,0)" />
<text x="414" y="578" fill="rgb(0,0,0)">
1000</text>
<line x1="414.764" y1="550" x2="414.764" y2="558" stroke="rgb(0,0,0)" />
<line x1="427.559" y1="550" x2="427.559" y2="554" stroke="rgb(0,0,0)" />
<line x1="440.354" y1="550" x2="440.354" y2="554" stroke="rgb(0,0,0)" />
<line x1="453.15" y1="550" x2="453.15" y2="554" stroke="rgb(0,0,0)" />
<line x1="465.945" y1="550" x2="465.945" y2="554" stroke="rgb(0,0,0)" />
<text x="478" y="578" fill="rgb(0,0,0)">
1200</text>
<line x1="478.74" y1="550" x2="478.74" y2="558" stroke="rgb(0,0,0)" />
<line x1="491.535" y1="550" x2="491.535" y2="554" stroke="rgb(0,0,0)" />
<line x1="504.331" y1="550" x2="504.331" y2="554" stroke="rgb(0,0,0)" />
<line x1="517.126" y1="550" x2="517.126" y2="554" stroke="rgb(0,0,0)" />
<line x1="529.921" y1="550" x2="529.921" y2="554" stroke="rgb(0,0,0)" />
<text x="542" y="578" fill="rgb(0,0,0)">
1400</text>
<line x1="542.717" y1="550" x2="542.717" y2="558" stroke="rgb(0,0,0)" />
<line x1="555.512" y1="550" x2="555.512" y2="554" stroke="rgb(0,0,0)" />
<line x1="568.307" y1="550" x2="568.307" y2="554" stroke="rgb(0,0,0)" />
<line x1="581.102" y1="550" x2="581.102" y2="554" stroke="rgb(0,0,0)" />
<line x1="593.898" y1="550" x2="593.898" y2="554" stroke="rgb(0,0,0)" />
<text x="606" y="578" fill="rgb(0,0,0)">
1600</text>
<line x1="606.693" y1="550" x2="606.693" y2="558" stroke="rgb(0,0,0)" />
<line x1="619.488" y1="550" x2="619.488" y2="554" stroke="rgb(0,0,0)" />
<line x1="632.283" y1="550" x2="632.283" y2="554" stroke="rgb(0,0,0)" />
<line x1="645.079" y1="550" x2="645.079" y2="554" stroke="rgb(0,0,0)" />
<line x1="657.874" y1="550" x2="657.874" y2="554" stroke="rgb(0,0,0)" />
<text x="670" y="578" fill="rgb(0,0,0)">
1800</text>
<line x1="670.669" y1="550" x2="670.669" y2="558" stroke="rgb(0,0,0)" />
<line x1="683.465" y1="550" x2="683.465" y2="554" stroke="rgb(0,0,0)" />
<line x1="696.26" y1="550" x2="696.26" y2="554" stroke="rgb(0,0,0)" />
<line x1="709.055" y1="550" x2="709.055" y2="554" stroke="rgb(0,0,0)" />
<line x1="721.85" y1="550" x2="721.85" y2="554" stroke="rgb(0,0,0)" />
<text x="734" y="578" fill="rgb(0,0,0)">
2000</text>
<line x1="734.646" y1="550" x2="734.646" y2="558" stroke="rgb(0,0,0)" />
<line x1="747.441" y1="550" x2="747.441" y2="554" stroke="rgb(0,0,0)" />
<text x="409" y="594" fill="rgb(0,0,0)">
N</text>
<line x1="100" y1="50" x2="100" y2="550" stroke="rgb(0,0,0)" />
<text x="58" y="558" fill="rgb(0,0,0)">
0</text>
<line x1="100" y1="550" x2="92" y2="550" stroke="rgb(0,0,0)" />
<line x1="100" y1="542.676" x2="96" y2="542.676" stroke="rgb(0,0,0)" />
<line x1="100" y1="535.352" x2="96" y2="535.352" stroke="rgb(0,0,0)" />
<line x1="100" y1="528.028" x2="96" y2="528.028" stroke="rgb(0,0,0)" />
<line x1="100" y1="520.705" x2="96" y2="520.705" stroke="rgb(0,0,0)" />
<text x="42" y="521" fill="rgb(0,0,0)">
1000</text>
<line x1="100" y1="513.381" x2="92" y2="513.381" stroke="rgb(0,0,0)" />
<line x1="100" y1="506.057" x2="96" y2="506.057" stroke="rgb(0,0,0)" />
<line x1="100" y1="498.733" x2="96" y2="498.733" stroke="rgb(0,0,0)" />
<line x1="100" y1="491.409" x2="96" y2="491.409" stroke="rgb(0,0,0)" />
<line x1="100" y1="484.085" x2="96" y2="484.085" stroke="rgb(0,0,0)" />
<text x="40" y="484" fill="rgb(0,0,0)">
2000</text>
<line x1="100" y1="476.761" x2="92" y2="476.761" stroke="rgb(0,0,0)" />
<line x1="100" y1="469.438" x2="96" y2="469.438" stroke="rgb(0,0,0)" />
<line x1="100" y1="462.114" x2="96" y2="462.114" stroke="rgb(0,0,0)" />
<line x1="100" y1="454.79" x2="96" y2="454.79" stroke="rgb(0,0,0)" />
<line x1="100" y1="447.466" x2="96" y2="447.466" stroke="rgb(0,0,0)" />
<text x="40" y="448" fill="rgb(0,0,0)">
3000</text>
<line x1="100" y1="440.142" x2="92" y2="440.142" stroke="rgb(0,0,0)" />
<line x1="100" y1="432.818" x2="96" y2="432.818" stroke="rgb(0,0,0)" />
<line x1="100" y1="425.494" x2="96" y2="425.494" stroke="rgb(0,0,0)" />
<line x1="100" y1="418.171" x2="96" y2="418.171" stroke="rgb(0,0,0)" />
<line x1="100" y1="410.847" x2="96" y2="410.847" stroke="rgb(0,0,0)" />
<text x="40" y="411" fill="rgb(0,0,0)">
4000</text>
<line x1="100" y1="403.523" x2="92" y2="403.523" stroke="rgb(0,0,0)" />
<line x1="100" y1="396.199" x2="96" y2="396.199" stroke="rgb(0,0,0)" />
<line x1="100" y1="388.875" x2="96" y2="388.875" stroke="rgb(0,0,0)" />
<line x1="100" y1="381.551" x2="96" y2="381.551" stroke="rgb(0,0,0)" />
<line x1="100" y1="374.227" x2="96" y2="374.227" stroke="rgb(0,0,0)" />
<text x="40" y="374" fill="rgb(0,0,0)">
5000</text>
<line x1="100" y1="366.903" x2="92" y2="366.903" stroke="rgb(0,0,0)" />
<line x1="100" y1="359.58" x2="96" y2="359.58" stroke="rgb(0,0,0)" />
<line x1="100" y1="352.256" x2="96" y2="352.256" stroke="rgb(0,0,0)" />
<line x1="100" y1="344.932" x2="96" y2="344.932" stroke="rgb(0,0,0)" />
<line x1="100" y1="337.608" x2="96" y2="337.608" stroke="rgb(0,0,0)" />
<text x="40" y="338" fill="rgb(0,0,0)">
6000</text>
<line x1="100" y1="330.284" x2="92" y2="330.284" stroke="rgb(0,0,0)" />
<line x1="100" y1="322.96" x2="96" y2="322.96" stroke="rgb(0,0,0)" />
<line x1="100" y1="315.636" x2="96" y2="315.636" stroke="rgb(0,0,0)" />
<line x1="100" y1="308.313" x2="96" y2="308.313" stroke="rgb(0,0,0)" />
<line x1="100" y1="300.989" x2="96" y2="300.989" stroke="rgb(0,0,0)" />
<text x="40" y="301" fill="rgb(0,0,0)">
7000</text>
<line x1="100" y1="293.665" x2="92" y2="293.665" stroke="rgb(0,0,0)" />
<line x1="100" y1="286.341" x2="96" y2="286.341" stroke="rgb(0,0,0)" />
<line x1="100" y1="279.017" x2="96" y2="279.017" stroke="rgb(0,0,0)" />
<line x1="100" y1="271.693" x2="96" y2="271.693" stroke="rgb(0,0,0)" />
<line x1="100" y1="264.369" x2="96" y2="264.369" stroke="rgb(0,0,0)" />
<text x="40" y="265" fill="rgb(0,0,0)">
8000</text>
<line x1="100" y1="257.046" x2="92" y2="257.046" stroke="rgb(0,0,0)" />
<line x1="100" y1="249.722" x2="96" y2="249.722" stroke="rgb(0,0,0)" />
<line x1="100" y1="242.398" x2="96" y2="242.398" stroke="rgb(0,0,0)" />
<line x1="100" y1="235.074" x2="96" y2="235.074" stroke="rgb(0,0,0)" />
<line x1="100" y1="227.75" x2="96" y2="227.75" stroke="rgb(0,0,0)" />
<text x="40" y="228" fill="rgb(0,0,0)">
9000</text>
<line x1="100" y1="220.426" x2="92" y2="220.426" stroke="rgb(0,0,0)" />
<line x1="100" y1="213.102" x2="96" y2="213.102" stroke="rgb(0,0,0)" />
<line x1="100" y1="205.779" x2="96" y2="205.779" stroke="rgb(0,0,0)" />
<line x1="100" y1="198.455" x2="96" y2="198.455" stroke="rgb(0,0,0)" />
<line x1="100" y1="191.131" x2="96" y2="191.131" stroke="rgb(0,0,0)" />
<text x="36" y="191" fill="rgb(0,0,0)">
10000</text>
<line x1="100" y1="183.807" x2="92" y2="183.807" stroke="rgb(0,0,0)" />
<line x1="100" y1="176.483" x2="96" y2="176.483" stroke="rgb(0,0,0)" />
<line x1="100" y1="169.159" x2="96" y2="169.159" stroke="rgb(0,0,0)" />
<line x1="100" y1="161.835" x2="96" y2="161.835" stroke="rgb(0,0,0)" />
<line x1="100" y1="154.512" x2="96" y2="154.512" stroke="rgb(0,0,0)" />
<text x="37" y="155" fill="rgb(0,0,0)">
11000</text>
<line x1="100" y1="147.188" x2="92" y2="147.188" stroke="rgb(0,0,0)" />
<line x1="100" y1="139.864" x2="96" y2="139.864" stroke="rgb(0,0,0)" />
<line x1="100" y1="132.54" x2="96" y2="132.54" stroke="rgb(0,0,0)" />
<line x1="100" y1="125.216" x2="96" y2="125.216" stroke="rgb(0,0,0)" />
<line x1="100" y1="117.892" x2="96" y2="117.892" stroke="rgb(0,0,0)" />
<text x="36" y="118" fill="rgb(0,0,0)">
12000</text>
<line x1="100" y1="110.568" x2="92" y2="110.568" stroke="rgb(0,0,0)" />
<line x1="100" y1="103.244" x2="96" y2="103.244" stroke="rgb(0,0,0)" />
<line x1="100" y1="95.9206" x2="96" y2="95.9206" stroke="rgb(0,0,0)" />
<line x1="100" y1="88.5967" x2="96" y2="88.5967" stroke="rgb(0,0,0)" />
<line x1="100" y1="81.2729" x2="96" y2="81.2729" stroke="rgb(0,0,0)" />
<text x="36" y="81" fill="rgb(0,0,0)">
13000</text>
<line x1="100" y1="73.949" x2="92" y2="73.949" stroke="rgb(0,0,0)" />
<line x1="100" y1="66.6252" x2="96" y2="66.6252" stroke="rgb(0,0,0)" />
<line x1="100" y1="59.3013" x2="96" y2="59.3013" stroke="rgb(0,0,0)" />
<line x1="100" y1="51.9774" x2="96" y2="51.9774" stroke="rgb(0,0,0)" />
<text x="36" y="370" transform="rotate(-90,36,370)">Time (microseconds)</text>
<text x="120" y="66" fill="rgb(200,0,100)">
bubbleSort</text>
<text x="120" y="98" fill="rgb(100,20,220)">
selectionSort</text>
<text x="120" y="130" fill="rgb(50,220,10)">
insertionSort</text>
<text x="120" y="162" fill="rgb(200,209,220)">
std::sort</text>
<clipPath>
<rect x="100" y="50" width="650" height="500" fill="rgb(0,0,0)" />
</clipPath>
<line x1="100" y1="549.927" x2="105.118" y2="549.854" stroke="rgb(200,0,100)" />
<line x1="105.118" y1="549.854" x2="115.354" y2="549.561" stroke="rgb(200,0,100)" />
<line x1="115.354" y1="549.561" x2="135.827" y2="548.096" stroke="rgb(200,0,100)" />
<line x1="135.827" y1="548.096" x2="176.772" y2="542.31" stroke="rgb(200,0,100)" />
<line x1="176.772" y1="542.31" x2="258.661" y2="518.581" stroke="rgb(200,0,100)" />
<line x1="258.661" y1="518.581" x2="422.441" y2="425.714" stroke="rgb(200,0,100)" />
<line x1="422.441" y1="425.714" x2="750" y2="50" stroke="rgb(200,0,100)" />
<line x1="100" y1="549.963" x2="105.118" y2="549.927" stroke="rgb(100,20,220)" />
<line x1="105.118" y1="549.927" x2="115.354" y2="549.744" stroke="rgb(100,20,220)" />
<line x1="115.354" y1="549.744" x2="135.827" y2="549.121" stroke="rgb(100,20,220)" />
<line x1="135.827" y1="549.121" x2="176.772" y2="546.887" stroke="rgb(100,20,220)" />
<line x1="176.772" y1="546.887" x2="258.661" y2="538.575" stroke="rgb(100,20,220)" />
<line x1="258.661" y1="538.575" x2="422.441" y2="506.313" stroke="rgb(100,20,220)" />
<line x1="422.441" y1="506.313" x2="750" y2="375.692" stroke="rgb(100,20,220)" />
<line x1="100" y1="549.963" x2="105.118" y2="549.927" stroke="rgb(50,220,10)" />
<line x1="105.118" y1="549.927" x2="115.354" y2="549.89" stroke="rgb(50,220,10)" />
<line x1="115.354" y1="549.89" x2="135.827" y2="549.561" stroke="rgb(50,220,10)" />
<line x1="135.827" y1="549.561" x2="176.772" y2="548.389" stroke="rgb(50,220,10)" />
<line x1="176.772" y1="548.389" x2="258.661" y2="543.628" stroke="rgb(50,220,10)" />
<line x1="258.661" y1="543.628" x2="422.441" y2="525.062" stroke="rgb(50,220,10)" />
<line x1="422.441" y1="525.062" x2="750" y2="452.849" stroke="rgb(50,220,10)" />
<line x1="100" y1="549.89" x2="105.118" y2="549.854" stroke="rgb(200,209,220)" />
<line x1="105.118" y1="549.854" x2="115.354" y2="549.67" stroke="rgb(200,209,220)" />
<line x1="115.354" y1="549.67" x2="135.827" y2="549.231" stroke="rgb(200,209,220)" />
<line x1="135.827" y1="549.231" x2="176.772" y2="548.242" stroke="rgb(200,209,220)" />
<line x1="176.772" y1="548.242" x2="258.661" y2="545.972" stroke="rgb(200,209,220)" />
<line x1="258.661" y1="545.972" x2="422.441" y2="540.992" stroke="rgb(200,209,220)" />
<line x1="422.441" y1="540.992" x2="750" y2="528.358" stroke="rgb(200,209,220)" />
</svg>

