<?xml version="1.0" encoding="utf-8"?>
<svg version="1.1" baseProfile="full" width="800" height="600" xmlns="http://www.w3.org/2000/svg">
<clipPath>
<rect x="0" y="0" width="800" height="600" fill="rgb(0,0,0)" />
</clipPath>
<text x="279" y="34" fill="rgb(0,0,0)">
Number of Elements Sorted Versus Time</text>
<line x1="158.858" y1="50" x2="158.858" y2="550" stroke="rgb(200,200,200)" />
<line x1="222.835" y1="50" x2="222.835" y2="550" stroke="rgb(200,200,200)" />
<line x1="286.811" y1="50" x2="286.811" y2="550" stroke="rgb(200,200,200)" />
<line x1="350.787" y1="50" x2="350.787" y2="550" stroke="rgb(200,200,200)" />
<line x1="414.764" y1="50" x2="414.764" y2="550" stroke="rgb(200,200,200)" />
<line x1="478.74" y1="50" x2="478.74" y2="550" stroke="rgb(200,200,200)" />
<line x1="542.717" y1="50" x2="542.717" y2="550" stroke="rgb(200,200,200)" />
<line x1="606.693" y1="50" x2="606.693" y2="550" stroke="rgb(200,200,200)" />
<line x1="670.669" y1="50" x2="670.669" y2="550" stroke="rgb(200,200,200)" />
<line x1="734.646" y1="50" x2="734.646" y2="550" stroke="rgb(200,200,200)" />
<line x1="100" y1="550" x2="750" y2="550" stroke="rgb(200,200,200)" />
<line x1="100" y1="527.057" x2="750" y2="527.057" stroke="rgb(200,200,200)" />
<line x1="100" y1="504.114" x2="750" y2="504.114" stroke="rgb(200,200,200)" />
<line x1="100" y1="481.171" x2="750" y2="481.171" stroke="rgb(200,200,200)" />
<line x1="100" y1="458.227" x2="750" y2="458.227" stroke="rgb(200,200,200)" />
<line x1="100" y1="435.284" x2="750" y2="435.284" stroke="rgb(200,200,200)" />
<line x1="100" y1="412.341" x2="750" y2="412.341" stroke="rgb(200,200,200)" />
<line x1="100" y1="389.398" x2="750" y2="389.398" stroke="rgb(200,200,200)" />
<line x1="100" y1="366.455" x2="750" y2="366.455" stroke="rgb(200,200,200)" />
<line x1="100" y1="343.512" x2="750" y2="343.512" stroke="rgb(200,200,200)" />
<line x1="100" y1="320.569" x2="750" y2="320.569" stroke="rgb(200,200,200)" />
<line x1="100" y1="297.625" x2="750" y2="297.625" stroke="rgb(200,200,200)" />
<line x1="100" y1="274.682" x2="750" y2="274.682" stroke="rgb(200,200,200)" />
<line x1="100" y1="251.739" x2="750" y2="251.739" stroke="rgb(200,200,200)" />
<line x1="100" y1="228.796" x2="750" y2="228.796" stroke="rgb(200,200,200)" />
<line x1="100" y1="205.853" x2="750" y2="205.853" stroke="rgb(200,200,200)" />
<line x1="100" y1="182.91" x2="750" y2="182.91" stroke="rgb(200,200,200)" />
<line x1="100" y1="159.967" x2="750" y2="159.967" stroke="rgb(200,200,200)" />
<line x1="100" y1="137.023" x2="750" y2="137.023" stroke="rgb(200,200,200)" />
<line x1="100" y1="114.08" x2="750" y2="114.08" stroke="rgb(200,200,200)" />
<line x1="100" y1="91.1371" x2="750" y2="91.1371" stroke="rgb(200,200,200)" />
<line x1="100" y1="68.1939" x2="750" y2="68.1939" stroke="rgb(200,200,200)" />
<line x1="100" y1="550" x2="750" y2="550" stroke="rgb(0,0,0)" />
<line x1="107.677" y1="550" x2="107.677" y2="554" stroke="rgb(0,0,0)" />
<line x1="120.472" y1="550" x2="120.472" y2="554" stroke="rgb(0,0,0)" />
<line x1="133.268" y1="550" x2="133.268" y2="554" stroke="rgb(0,0,0)" />
<line x1="146.063" y1="550" x2="146.063" y2="554" stroke="rgb(0,0,0)" />
<text x="158" y="578" fill="rgb(0,0,0)">
200</text>
<line x1="158.858" y1="550" x2="158.858" y2="558" stroke="rgb(0,0,0)" />
<line x1="171.654" y1="550" x2="171.654" y2="554" stroke="rgb(0,0,0)" />
<line x1="184.449" y1="550" x2="184.449" y2="554" stroke="rgb(0,0,0)" />
<line x1="197.244" y1="550" x2="197.244" y2="554" stroke="rgb(0,0,0)" />
<line x1="210.039" y1="550" x2="210.039" y2="554" stroke="rgb(0,0,0)" />
<text x="222" y="578" fill="rgb(0,0,0)">
400</text>
<line x1="222.835" y1="550" x2="222.835" y2="558" stroke="rgb(0,0,0)" />
<line x1="235.63" y1="550" x2="235.63" y2="554" stroke="rgb(0,0,0)" />
<line x1="248.425" y1="550" x2="248.425" y2="554" stroke="rgb(0,0,0)" />
<line x1="261.22" y1="550" x2="261.22" y2="554" stroke="rgb(0,0,0)" />
<line x1="274.016" y1="550" x2="274.016" y2="554" stroke="rgb(0,0,0)" />
<text x="286" y="578" fill="rgb(0,0,0)">
600</text>
<line x1="286.811" y1="550" x2="286.811" y2="558" stroke="rgb(0,0,0)" />
<line x1="299.606" y1="550" x2="299.606" y2="554" stroke="rgb(0,0,0)" />
<line x1="312.402" y1="550" x2="312.402" y2="554" stroke="rgb(0,0,0)" />
<line x1="325.197" y1="550" x2="325.197" y2="554" stroke="rgb(0,0,0)" />
<line x1="337.992" y1="550" x2="337.992" y2="554" stroke="rgb(0,0,0)" />
<text x="350" y="578" fill="rgb(0,0,0)">
800</text>
<line x1="350.787" y1="550" x2="350.787" y2="558" stroke="rgb(0,0,0)" />
<line x1="363.583" y1="550" x2="363.583" y2="554" stroke="rgb(0,0,0)" />
<line x1="376.378" y1="550" x2="376.378" y2="554" stroke="rgb(0,0,0)" />
<line x1="389.173" y1="550" x2="389.173" y2="554" stroke="rgb(0,0,0)" />
<line x1="401.969" y1="550" x2="401.969" y2="554" stroke="rgb(0,0,0)" />
<text x="414" y="578" fill="rgb(0,0,0)">
1000</text>
<line x1="414.764" y1="550" x2="414.764" y2="558" stroke="rgb(0,0,0)" />
<line x1="427.559" y1="550" x2="427.559" y2="554" stroke="rgb(0,0,0)" />
<line x1="440.354" y1="550" x2="440.354" y2="554" stroke="rgb(0,0,0)" />
<line x1="453.15" y1="550" x2="453.15" y2="554" stroke="rgb(0,0,0)" />
<line x1="465.945" y1="550" x2="465.945" y2="554" stroke="rgb(0,0,0)" />
<text x="478" y="578" fill="rgb(0,0,0)">
1200</text>
<line x1="478.74" y1="550" x2="478.74" y2="558" stroke="rgb(0,0,0)" />
<line x1="491.535" y1="550" x2="491.535" y2="554" stroke="rgb(0,0,0)" />
<line x1="504.331" y1="550" x2="504.331" y2="554" stroke="rgb(0,0,0)" />
<line x1="517.126" y1="550" x2="517.126" y2="554" stroke="rgb(0,0,0)" />
<line x1="529.921" y1="550" x2="529.921" y2="554" stroke="rgb(0,0,0)" />
<text x="542" y="578" fill="rgb(0,0,0)">
1400</text>
<line x1="542.717" y1="550" x2="542.717" y2="558" stroke="rgb(0,0,0)" />
<line x1="555.512" y1="550" x2="555.512" y2="554" stroke="rgb(0,0,0)" />
<line x1="568.307" y1="550" x2="568.307" y2="554" stroke="rgb(0,0,0)" />
<line x1="581.102" y1="550" x2="581.102" y2="554" stroke="rgb(0,0,0)" />
<line x1="593.898" y1="550" x2="593.898" y2="554" stroke="rgb(0,0,0)" />
<text x="606" y="578" fill="rgb(0,0,0)">
1600</text>
<line x1="606.693" y1="550" x2="606.693" y2="558" stroke="rgb(0,0,0)" />
<line x1="619.488" y1="550" x2="619.488" y2="554" stroke="rgb(0,0,0)" />
<line x1="632.283" y1="550" x2="632.283" y2="554" stroke="rgb(0,0,0)" />
<line x1="645.079" y1="550" x2="645.079" y2="554" stroke="rgb(0,0,0)" />
<line x1="657.874" y1="550" x2="657.874" y2="554" stroke="rgb(0,0,0)" />
<text x="670" y="578" fill="rgb(0,0,0)">
1800</text>
<line x1="670.669" y1="550" x2="670.669" y2="558" stroke="rgb(0,0,0)" />
<line x1="683.465" y1="550" x2="683.465" y2="554" stroke="rgb(0,0,0)" />
<line x1="696.26" y1="550" x2="696.26" y2="554" stroke="rgb(0,0,0)" />
<line x1="709.055" y1="550" x2="709.055" y2="554" stroke="rgb(0,0,0)" />
<line x1="721.85" y1="550" x2="721.85" y2="554" stroke="rgb(0,0,0)" />
<text x="734" y="578" fill="rgb(0,0,0)">
2000</text>
<line x1="734.646" y1="550" x2="734.646" y2="558" stroke="rgb(0,0,0)" />
<line x1="747.441" y1="550" x2="747.441" y2="554" stroke="rgb(0,0,0)" />
<text x="409" y="594" fill="rgb(0,0,0)">
N</text>
<line x1="100" y1="50" x2="100" y2="550" stroke="rgb(0,0,0)" />
<text x="58" y="558" fill="rgb(0,0,0)">
0</text>
<line x1="100" y1="550" x2="92" y2="550" stroke="rgb(0,0,0)" />
<line x1="100" y1="545.411" x2="96" y2="545.411" stroke="rgb(0,0,0)" />
<line x1="100" y1="540.823" x2="96" y2="540.823" stroke="rgb(0,0,0)" />
<line x1="100" y1="536.234" x2="96" y2="536.234" stroke="rgb(0,0,0)" />
<line x1="100" y1="531.646" x2="96" y2="531.646" stroke="rgb(0,0,0)" />
<text x="40" y="535" fill="rgb(0,0,0)">
2000</text>
<line x1="100" y1="527.057" x2="92" y2="527.057" stroke="rgb(0,0,0)" />
<line x1="100" y1="522.468" x2="96" y2="522.468" stroke="rgb(0,0,0)" />
<line x1="100" y1="517.88" x2="96" y2="517.88" stroke="rgb(0,0,0)" />
<line x1="100" y1="513.291" x2="96" y2="513.291" stroke="rgb(0,0,0)" />
<line x1="100" y1="508.702" x2="96" y2="508.702" stroke="rgb(0,0,0)" />
<text x="40" y="512" fill="rgb(0,0,0)">
4000</text>
<line x1="100" y1="504.114" x2="92" y2="504.114" stroke="rgb(0,0,0)" />
<line x1="100" y1="499.525" x2="96" y2="499.525" stroke="rgb(0,0,0)" />
<line x1="100" y1="494.936" x2="96" y2="494.936" stroke="rgb(0,0,0)" />
<line x1="100" y1="490.348" x2="96" y2="490.348" stroke="rgb(0,0,0)" />
<line x1="100" y1="485.759" x2="96" y2="485.759" stroke="rgb(0,0,0)" />
<text x="40" y="489" fill="rgb(0,0,0)">
6000</text>
<line x1="100" y1="481.171" x2="92" y2="481.171" stroke="rgb(0,0,0)" />
<line x1="100" y1="476.582" x2="96" y2="476.582" stroke="rgb(0,0,0)" />
<line x1="100" y1="471.993" x2="96" y2="471.993" stroke="rgb(0,0,0)" />
<line x1="100" y1="467.405" x2="96" y2="467.405" stroke="rgb(0,0,0)" />
<line x1="100" y1="462.816" x2="96" y2="462.816" stroke="rgb(0,0,0)" />
<text x="40" y="466" fill="rgb(0,0,0)">
8000</text>
<line x1="100" y1="458.227" x2="92" y2="458.227" stroke="rgb(0,0,0)" />
<line x1="100" y1="453.639" x2="96" y2="453.639" stroke="rgb(0,0,0)" />
<line x1="100" y1="449.05" x2="96" y2="449.05" stroke="rgb(0,0,0)" />
<line x1="100" y1="444.462" x2="96" y2="444.462" stroke="rgb(0,0,0)" />
<line x1="100" y1="439.873" x2="96" y2="439.873" stroke="rgb(0,0,0)" />
<text x="36" y="443" fill="rgb(0,0,0)">
10000</text>
<line x1="100" y1="435.284" x2="92" y2="435.284" stroke="rgb(0,0,0)" />
<line x1="100" y1="430.696" x2="96" y2="430.696" stroke="rgb(0,0,0)" />
<line x1="100" y1="426.107" x2="96" y2="426.107" stroke="rgb(0,0,0)" />
<line x1="100" y1="421.518" x2="96" y2="421.518" stroke="rgb(0,0,0)" />
<line x1="100" y1="416.93" x2="96" y2="416.93" stroke="rgb(0,0,0)" />
<text x="36" y="420" fill="rgb(0,0,0)">
12000</text>
<line x1="100" y1="412.341" x2="92" y2="412.341" stroke="rgb(0,0,0)" />
<line x1="100" y1="407.753" x2="96" y2="407.753" stroke="rgb(0,0,0)" />
<line x1="100" y1="403.164" x2="96" y2="403.164" stroke="rgb(0,0,0)" />
<line x1="100" y1="398.575" x2="96" y2="398.575" stroke="rgb(0,0,0)" />
<line x1="100" y1="393.987" x2="96" y2="393.987" stroke="rgb(0,0,0)" />
<text x="36" y="397" fill="rgb(0,0,0)">
14000</text>
<line x1="100" y1="389.398" x2="92" y2="389.398" stroke="rgb(0,0,0)" />
<line x1="100" y1="384.809" x2="96" y2="384.809" stroke="rgb(0,0,0)" />
<line x1="100" y1="380.221" x2="96" y2="380.221" stroke="rgb(0,0,0)" />
<line x1="100" y1="375.632" x2="96" y2="375.632" stroke="rgb(0,0,0)" />
<line x1="100" y1="371.043" x2="96" y2="371.043" stroke="rgb(0,0,0)" />
<text x="36" y="374" fill="rgb(0,0,0)">
16000</text>
<line x1="100" y1="366.455" x2="92" y2="366.455" stroke="rgb(0,0,0)" />
<line x1="100" y1="361.866" x2="96" y2="361.866" stroke="rgb(0,0,0)" />
<line x1="100" y1="357.278" x2="96" y2="357.278" stroke="rgb(0,0,0)" />
<line x1="100" y1="352.689" x2="96" y2="352.689" stroke="rgb(0,0,0)" />
<line x1="100" y1="348.1" x2="96" y2="348.1" stroke="rgb(0,0,0)" />
<text x="36" y="351" fill="rgb(0,0,0)">
18000</text>
<line x1="100" y1="343.512" x2="92" y2="343.512" stroke="rgb(0,0,0)" />
<line x1="100" y1="338.923" x2="96" y2="338.923" stroke="rgb(0,0,0)" />
<line x1="100" y1="334.334" x2="96" y2="334.334" stroke="rgb(0,0,0)" />
<line x1="100" y1="329.746" x2="96" y2="329.746" stroke="rgb(0,0,0)" />
<line x1="100" y1="325.157" x2="96" y2="325.157" stroke="rgb(0,0,0)" />
<text x="35" y="328" fill="rgb(0,0,0)">
20000</text>
<line x1="100" y1="320.569" x2="92" y2="320.569" stroke="rgb(0,0,0)" />
<line x1="100" y1="315.98" x2="96" y2="315.98" stroke="rgb(0,0,0)" />
<line x1="100" y1="311.391" x2="96" y2="311.391" stroke="rgb(0,0,0)" />
<line x1="100" y1="306.803" x2="96" y2="306.803" stroke="rgb(0,0,0)" />
<line x1="100" y1="302.214" x2="96" y2="302.214" stroke="rgb(0,0,0)" />
<text x="35" y="305" fill="rgb(0,0,0)">
22000</text>
<line x1="100" y1="297.625" x2="92" y2="297.625" stroke="rgb(0,0,0)" />
<line x1="100" y1="293.037" x2="96" y2="293.037" stroke="rgb(0,0,0)" />
<line x1="100" y1="288.448" x2="96" y2="288.448" stroke="rgb(0,0,0)" />
<line x1="100" y1="283.859" x2="96" y2="283.859" stroke="rgb(0,0,0)" />
<line x1="100" y1="279.271" x2="96" y2="279.271" stroke="rgb(0,0,0)" />
<text x="35" y="282" fill="rgb(0,0,0)">
24000</text>
<line x1="100" y1="274.682" x2="92" y2="274.682" stroke="rgb(0,0,0)" />
<line x1="100" y1="270.094" x2="96" y2="270.094" stroke="rgb(0,0,0)" />
<line x1="100" y1="265.505" x2="96" y2="265.505" stroke="rgb(0,0,0)" />
<line x1="100" y1="260.916" x2="96" y2="260.916" stroke="rgb(0,0,0)" />
<line x1="100" y1="256.328" x2="96" y2="256.328" stroke="rgb(0,0,0)" />
<text x="35" y="259" fill="rgb(0,0,0)">
26000</text>
<line x1="100" y1="251.739" x2="92" y2="251.739" stroke="rgb(0,0,0)" />
<line x1="100" y1="247.15" x2="96" y2="247.15" stroke="rgb(0,0,0)" />
<line x1="100" y1="242.562" x2="96" y2="242.562" stroke="rgb(0,0,0)" />
<line x1="100" y1="237.973" x2="96" y2="237.973" stroke="rgb(0,0,0)" />
<line x1="100" y1="233.385" x2="96" y2="233.385" stroke="rgb(0,0,0)" />
<text x="35" y="236" fill="rgb(0,0,0)">
28000</text>
<line x1="100" y1="228.796" x2="92" y2="228.796" stroke="rgb(0,0,0)" />
<line x1="100" y1="224.207" x2="96" y2="224.207" stroke="rgb(0,0,0)" />
<line x1="100" y1="219.619" x2="96" y2="219.619" stroke="rgb(0,0,0)" />
<line x1="100" y1="215.03" x2="96" y2="215.03" stroke="rgb(0,0,0)" />
<line x1="100" y1="210.441" x2="96" y2="210.441" stroke="rgb(0,0,0)" />
<text x="35" y="213" fill="rgb(0,0,0)">
30000</text>
<line x1="100" y1="205.853" x2="92" y2="205.853" stroke="rgb(0,0,0)" />
<line x1="100" y1="201.264" x2="96" y2="201.264" stroke="rgb(0,0,0)" />
<line x1="100" y1="196.676" x2="96" y2="196.676" stroke="rgb(0,0,0)" />
<line x1="100" y1="192.087" x2="96" y2="192.087" stroke="rgb(0,0,0)" />
<line x1="100" y1="187.498" x2="96" y2="187.498" stroke="rgb(0,0,0)" />
<text x="35" y="190" fill="rgb(0,0,0)">
32000</text>
<line x1="100" y1="182.91" x2="92" y2="182.91" stroke="rgb(0,0,0)" />
<line x1="100" y1="178.321" x2="96" y2="178.321" stroke="rgb(0,0,0)" />
<line x1="100" y1="173.732" x2="96" y2="173.732" stroke="rgb(0,0,0)" />
<line x1="100" y1="169.144" x2="96" y2="169.144" stroke="rgb(0,0,0)" />
<line x1="100" y1="164.555" x2="96" y2="164.555" stroke="rgb(0,0,0)" />
<text x="35" y="167" fill="rgb(0,0,0)">
34000</text>
<line x1="100" y1="159.967" x2="92" y2="159.967" stroke="rgb(0,0,0)" />
<line x1="100" y1="155.378" x2="96" y2="155.378" stroke="rgb(0,0,0)" />
<line x1="100" y1="150.789" x2="96" y2="150.789" stroke="rgb(0,0,0)" />
<line x1="100" y1="146.201" x2="96" y2="146.201" stroke="rgb(0,0,0)" />
<line x1="100" y1="141.612" x2="96" y2="141.612" stroke="rgb(0,0,0)" />
<text x="35" y="145" fill="rgb(0,0,0)">
36000</text>
<line x1="100" y1="137.023" x2="92" y2="137.023" stroke="rgb(0,0,0)" />
<line x1="100" y1="132.435" x2="96" y2="132.435" stroke="rgb(0,0,0)" />
<line x1="100" y1="127.846" x2="96" y2="127.846" stroke="rgb(0,0,0)" />
<line x1="100" y1="123.257" x2="96" y2="123.257" stroke="rgb(0,0,0)" />
<line x1="100" y1="118.669" x2="96" y2="118.669" stroke="rgb(0,0,0)" />
<text x="35" y="122" fill="rgb(0,0,0)">
38000</text>
<line x1="100" y1="114.08" x2="92" y2="114.08" stroke="rgb(0,0,0)" />
<line x1="100" y1="109.492" x2="96" y2="109.492" stroke="rgb(0,0,0)" />
<line x1="100" y1="104.903" x2="96" y2="104.903" stroke="rgb(0,0,0)" />
<line x1="100" y1="100.314" x2="96" y2="100.314" stroke="rgb(0,0,0)" />
<line x1="100" y1="95.7257" x2="96" y2="95.7257" stroke="rgb(0,0,0)" />
<text x="35" y="99" fill="rgb(0,0,0)">
40000</text>
<line x1="100" y1="91.1371" x2="92" y2="91.1371" stroke="rgb(0,0,0)" />
<line x1="100" y1="86.5484" x2="96" y2="86.5484" stroke="rgb(0,0,0)" />
<line x1="100" y1="81.9598" x2="96" y2="81.9598" stroke="rgb(0,0,0)" />
<line x1="100" y1="77.3712" x2="96" y2="77.3712" stroke="rgb(0,0,0)" />
<line x1="100" y1="72.7826" x2="96" y2="72.7826" stroke="rgb(0,0,0)" />
<text x="35" y="76" fill="rgb(0,0,0)">
42000</text>
<line x1="100" y1="68.1939" x2="92" y2="68.1939" stroke="rgb(0,0,0)" />
<line x1="100" y1="63.6053" x2="96" y2="63.6053" stroke="rgb(0,0,0)" />
<line x1="100" y1="59.0167" x2="96" y2="59.0167" stroke="rgb(0,0,0)" />
<line x1="100" y1="54.428" x2="96" y2="54.428" stroke="rgb(0,0,0)" />
<text x="35" y="370" transform="rotate(-90,35,370)">Time (microseconds)</text>
<text x="120" y="66" fill="rgb(200,0,100)">
bubbleSort</text>
<text x="120" y="98" fill="rgb(100,20,220)">
selectionSort</text>
<text x="120" y="130" fill="rgb(50,220,10)">
insertionSort</text>
<text x="120" y="162" fill="rgb(200,209,220)">
std::sort</text>
<clipPath>
<rect x="100" y="50" width="650" height="500" fill="rgb(0,0,0)" />
</clipPath>
<line x1="100" y1="549.954" x2="105.118" y2="549.828" stroke="rgb(200,0,100)" />
<line x1="105.118" y1="549.828" x2="115.354" y2="548.876" stroke="rgb(200,0,100)" />
<line x1="115.354" y1="548.876" x2="135.827" y2="548.176" stroke="rgb(200,0,100)" />
<line x1="135.827" y1="548.176" x2="176.772" y2="541.385" stroke="rgb(200,0,100)" />
<line x1="176.772" y1="541.385" x2="258.661" y2="521.08" stroke="rgb(200,0,100)" />
<line x1="258.661" y1="521.08" x2="422.441" y2="421.645" stroke="rgb(200,0,100)" />
<line x1="422.441" y1="421.645" x2="750" y2="50" stroke="rgb(200,0,100)" />
<line x1="100" y1="549.977" x2="105.118" y2="549.931" stroke="rgb(100,20,220)" />
<line x1="105.118" y1="549.931" x2="115.354" y2="549.885" stroke="rgb(100,20,220)" />
<line x1="115.354" y1="549.885" x2="135.827" y2="549.69" stroke="rgb(100,20,220)" />
<line x1="135.827" y1="549.69" x2="176.772" y2="548.612" stroke="rgb(100,20,220)" />
<line x1="176.772" y1="548.612" x2="258.661" y2="547.442" stroke="rgb(100,20,220)" />
<line x1="258.661" y1="547.442" x2="422.441" y2="538.666" stroke="rgb(100,20,220)" />
<line x1="422.441" y1="538.666" x2="750" y2="485.048" stroke="rgb(100,20,220)" />
<line x1="100" y1="549.989" x2="105.118" y2="549.977" stroke="rgb(50,220,10)" />
<line x1="105.118" y1="549.977" x2="115.354" y2="549.943" stroke="rgb(50,220,10)" />
<line x1="115.354" y1="549.943" x2="135.827" y2="549.862" stroke="rgb(50,220,10)" />
<line x1="135.827" y1="549.862" x2="176.772" y2="549.3" stroke="rgb(50,220,10)" />
<line x1="176.772" y1="549.3" x2="258.661" y2="548.509" stroke="rgb(50,220,10)" />
<line x1="258.661" y1="548.509" x2="422.441" y2="544.138" stroke="rgb(50,220,10)" />
<line x1="422.441" y1="544.138" x2="750" y2="522.262" stroke="rgb(50,220,10)" />
<line x1="100" y1="549.954" x2="105.118" y2="549.908" stroke="rgb(200,209,220)" />
<line x1="105.118" y1="549.908" x2="115.354" y2="549.828" stroke="rgb(200,209,220)" />
<line x1="115.354" y1="549.828" x2="135.827" y2="549.587" stroke="rgb(200,209,220)" />
<line x1="135.827" y1="549.587" x2="176.772" y2="547.453" stroke="rgb(200,209,220)" />
<line x1="176.772" y1="547.453" x2="258.661" y2="548.268" stroke="rgb(200,209,220)" />
<line x1="258.661" y1="548.268" x2="422.441" y2="546.398" stroke="rgb(200,209,220)" />
<line x1="422.441" y1="546.398" x2="750" y2="538.701" stroke="rgb(200,209,220)" />
</svg>

